<?xml version="1.0" encoding="iso-8859-1"?>
<!-- Generator: Adobe Illustrator 16.0.0, SVG Export Plug-In . SVG Version: 6.00 Build 0)  -->
<!DOCTYPE svg PUBLIC "-//W3C//DTD SVG 1.1//EN" "http://www.w3.org/Graphics/SVG/1.1/DTD/svg11.dtd">
<svg version="1.1" id="Capa_1" xmlns="http://www.w3.org/2000/svg" xmlns:xlink="http://www.w3.org/1999/xlink" x="0px" y="0px"
	 width="63.553px" height="63.553px" viewBox="0 0 63.553 63.553" style="enable-background:new 0 0 63.553 63.553;"
	 xml:space="preserve">
<g>
	<path d="M62.385,30.608H4.473L32.847,2.238c0.452-0.455,0.452-1.197,0-1.652c-0.456-0.455-1.199-0.455-1.652,0L0.829,30.952
		c0,0,0,0-0.004,0.002L0,31.775l0.825,0.825c0.004,0,0.004,0,0.004,0.003l30.366,30.365c0.227,0.23,0.525,0.34,0.824,0.34
		s0.598-0.114,0.828-0.34c0.454-0.456,0.454-1.197,0-1.651L4.473,32.943h57.912c0.641,0,1.168-0.522,1.168-1.168
		C63.553,31.132,63.026,30.608,62.385,30.608z"/>
</g>
<g>
</g>
<g>
</g>
<g>
</g>
<g>
</g>
<g>
</g>
<g>
</g>
<g>
</g>
<g>
</g>
<g>
</g>
<g>
</g>
<g>
</g>
<g>
</g>
<g>
</g>
<g>
</g>
<g>
</g>
</svg>
